<?xml version="1.0" standalone="no"?><!DOCTYPE svg PUBLIC "-//W3C//DTD SVG 1.1//EN" "http://www.w3.org/Graphics/SVG/1.1/DTD/svg11.dtd"><svg class="icon" width="200px" height="200.00px" viewBox="0 0 1024 1024" version="1.1" xmlns="http://www.w3.org/2000/svg"><path d="M214.88 495.904l7.008-0.32a5.344 5.344 0 0 1 0.704 2.752l-7.712-2.432z m-6.592 45.376l68.128 13.12c11.328 2.24 22.656 4.448 34.016 6.592a91.936 91.936 0 0 0 49.12-4.672l34.944-12.896c28.288-10.432 56.576-20.864 84.8-31.392 14.08-5.248 27.648-7.2 41.344-6.08 7.808 0.64 15.68 2.496 23.488 5.344l39.808 14.688c26.528 9.76 53.056 19.52 79.488 29.44 18.976 7.2 38.08 8.64 58.432 4.448 20.256-4.192 40.576-8.096 60.896-12l28.064-5.44c4.576-0.96 8.928-2.304 13.12-1.728 17.408 0.192 32.32 13.984 34.016 31.328 1.76 18.72 2.4 33.888 1.92 47.744-2.688 82.72-30.08 156.16-81.408 218.336-50.592 61.28-115.552 101.12-193.12 118.464-29.12 6.56-59.712 8.96-90.976 7.264a341.632 341.632 0 0 1-110.496-24.64l-4.704-2.24a125.6 125.6 0 0 1-17.28-7.68c-69.44-34.88-122.688-87.84-158.272-157.504a348.992 348.992 0 0 1-32.768-99.136 369.696 369.696 0 0 1-4.96-45.92C165.152 612.16 165.472 596.576 166.976 577.856a56.32 56.32 0 0 1 2.496-14.272 34.88 34.88 0 0 1 38.816-22.304z m699.168 88.96l0.48-35.36-0.64-14.112-0.128-0.32a136.864 136.864 0 0 0-1.6-16.64c-5.312-32.8-23.936-55.392-55.36-67.136a72.864 72.864 0 0 0-16-3.744 115.36 115.36 0 0 0-1.344-7.52l-12.832-57.696c14.4 0.384 29.024 2.176 43.2 3.84l7.776 1.056c2.88 0.448 5.76 0.864 8.64 1.184 7.008 0.256 13.536-3.584 15.424-10.176a14.368 14.368 0 0 0-6.944-16.8 41.696 41.696 0 0 0-4.832-2.272 211.136 211.136 0 0 0-50.752-13.504 111.36 111.36 0 0 0-34.496 0.288c-17.28 3.2-34.176 9.664-53.184 20.352a23.424 23.424 0 0 0-4.192 3.008 15.136 15.136 0 0 0-3.296 19.296c2.432 4.416 7.488 8.96 17.504 5.856 5.568-1.824 11.168-3.52 17.216-5.184l0.544 2.368 4.32 19.488c1.088 5.056 2.24 10.112 3.456 15.168 1.984 8.544 3.968 17.056 5.6 26.24l-16.224 3.168c-19.328 3.712-38.656 7.456-57.952 11.424a55.776 55.776 0 0 1-31.616-2.496c-24.896-9.344-49.92-18.56-74.88-27.744l-43.776-16.16a138.752 138.752 0 0 0-97.6-0.032c-27.936 10.432-55.904 20.736-83.904 31.04L342.432 511.04a46.08 46.08 0 0 1-25.728 1.92l-24.352-4.704-29.12-5.664a217.472 217.472 0 0 1-13.44-2.752 17.984 17.984 0 0 0-6.464-2.176l-9.632-1.952c-3.264-0.64-6.528-1.344-10.144-2.016l14.304-57.152c4.16 1.12 8.288 2.24 12.352 3.68 1.792 0.608 7.2 2.56 13.12 0.064l1.984-1.12c4.608-3.68 7.104-8.416 6.976-13.312a16.416 16.416 0 0 0-7.52-12.832 36.992 36.992 0 0 0-3.36-2.048 199.84 199.84 0 0 0-30.816-14.016c-16.064-5.76-31.04-8.096-45.792-6.912a180.256 180.256 0 0 0-22.912 3.168 212.416 212.416 0 0 0-39.136 11.968c-8.544 3.584-11.328 8.16-10.656 17.408l0.416 1.984c2.528 7.456 8.608 11.072 16.64 10.08l2.304-0.32c10.112-1.344 20.256-2.72 30.464-3.68l3.008-0.32c7.68-0.736 15.04-1.472 22.816-1.632l-2.4 9.76c-1.44 6.016-2.976 11.968-4.512 17.92-3.328 12.8-6.72 26.048-10.08 41.024A82.4 82.4 0 0 0 124.032 544.064c-6.08 14.528-6.72 29.44-7.36 44.576l-0.16 4.8c-0.416 9.6-0.864 19.52-0.256 29.6l0.288 4.48c0.736 12.48 1.472 25.376 3.168 38.144a403.136 403.136 0 0 0 139.648 255.168c25.92 22.08 54.848 40.64 85.888 55.328 26.88 12.64 54.624 22.208 82.432 28.416 23.264 5.12 42.752 7.68 61.504 8h44.032l8.32-0.256c6.016-0.32 12-0.672 18.016-1.344a387.84 387.84 0 0 0 147.328-48.64 399.072 399.072 0 0 0 114.176-97.92 401.28 401.28 0 0 0 46.688-73.6c12.416-25.184 21.984-50.976 28.48-76.608 5.632-22.176 11.36-48.672 11.296-76.832l-0.064-7.04v-0.096z" fill="#ffffff" /><path d="M287.52 134.624c0.384-0.096 0.768-0.256 1.152-0.416a31.68 31.68 0 0 0 8.064-3.904v12.768a24.16 24.16 0 0 0-9.216-8.448z m504.512 198.24a5.376 5.376 0 0 1 1.408 1.792l-7.072 3.136-0.032-0.032 5.696-4.896zM346.848 166.08l-1.92 15.168-0.864 6.912a28.224 28.224 0 0 0-15.168-18.304L328.992 118.72c0-0.736-0.064-1.536-0.192-3.008l1.536-0.448 144.544-61.44 5.92-2.08c4.576-2.08 9.728-2.72 14.56-3.104 10.4-0.768 20.288 0.96 30.272 5.12l188.16 80.192-62.4 19.52c-5.792-20.352-20.256-33.856-41.92-39.2-7.072-1.728-14.208-2.496-21.056-3.264l-7.04-0.832a2500.96 2500.96 0 0 0-43.872-5.216c-17.44-1.856-35.424-3.872-53.632-2.56-9.824 0.64-19.552 1.6-29.312 2.72l-32.96 4.256c-9.28 1.28-18.56 2.56-27.84 4A55.36 55.36 0 0 0 348.416 155.84a98.688 98.688 0 0 0-1.536 10.24z m45.632 23.84l2.816-21.696c0.704-5.024 2.784-6.4 6.08-7.136 4.224-0.864 8.448-1.632 12.768-1.792l2.016-0.256c2.336-0.768 4.8-0.96 7.2-1.28l8-1.024c7.296-1.088 14.592-2.144 22.336-2.784 13.696-1.824 27.808-3.744 41.888-3.744l3.84 0.064c12.8 0.352 25.6 1.728 38.624 3.296 13.696 1.536 27.36 3.296 41.056 5.024l2.176 0.256c5.44 0.64 10.88 1.376 16.384 2.208 2.016 0.32 6.784 1.472 7.36 5.984l6.944 53.536a328.896 328.896 0 0 0-63.584-11.424c-16.352-1.44-31.36-1.792-45.856-1.28a530.56 530.56 0 0 0-41.856 3.488l-19.424 2.24a56.928 56.928 0 0 1-8.064 1.536c-1.696 0.256-3.424 0.512-5.152 0.832l-25.92 4.768a90.112 90.112 0 0 1-9.28 2.528 244.16 244.16 0 0 1-4.64 1.12c1.376-11.488 2.816-22.976 4.288-34.464z m-243.552 164.128l2.208 0.512c7.264 1.376 14.464 3.072 21.664 4.672 4.672 1.088 9.344 2.144 14.016 3.136a170.112 170.112 0 0 1 65.984 30.336l12.48 9.248c3.392 2.496 6.528 3.2 8.96 3.2a11.424 11.424 0 0 0 2.496-0.288 14.72 14.72 0 0 0 7.04-4.576c0.256 0.32 0.224 0.736 0.48 1.088 3.2 4.256 7.328 7.744 12.224 10.368 10.304 5.6 21.856 8.16 37.12 8.192a72.672 72.672 0 0 0 23.616-3.712c6.4-2.048 14.592-5.376 20.96-12.736 7.52-8.576 8.48-18.528 2.752-27.872a33.024 33.024 0 0 0-9.792-9.888 64.64 64.64 0 0 0-32.768-9.984 122.176 122.176 0 0 0-12.352-0.064c-11.008 0.64-20.608 3.2-29.216 7.84-4.416 2.304-10.24 6.624-14.08 13.76-0.544-0.672-1.12-1.344-1.6-2.208-0.8-1.6-1.92-3.936-3.936-5.92l-3.68-3.776a139.904 139.904 0 0 0-9.856-9.6 812.8 812.8 0 0 1 5.856-14.528l4.32-10.656c1.248-3.168 2.656-6.24 4.032-9.28 2.432-5.184 4.736-10.72 6.56-16.576a20.416 20.416 0 0 0 5.76 12.736c4 3.84 9.504 6.016 14.848 5.6 3.84-0.16 7.808-0.096 11.68-0.064h8.224a19.712 19.712 0 0 0 20.16-20.544v-19.264-16.32c2.08 2.688 4.64 4.544 6.784 6.144l2.016 1.472c7.36 5.824 16.224 7.04 24.832 3.328 11.2-4.704 22.88-7.744 33.248-10.4v3.84 16.864a23.68 23.68 0 0 0 20.48 23.264 24 24 0 0 0 26.56-16.384c1.12-3.328 1.12-6.56 1.12-8.64v-3.392l-0.032-22.944 16.384-1.824v4.256c0 7.008-0.032 13.984 0.064 20.96a24 24 0 0 0 20.256 23.136 24.288 24.288 0 0 0 26.56-15.68 29.12 29.12 0 0 0 1.536-9.92l-0.032-24.832c5.184 0.192 10.464 0.384 16.16 0.768v28.8a26.56 26.56 0 0 0 4.032 15.072A24.064 24.064 0 0 0 589.312 288v-23.456a209.6 209.6 0 0 1 37.12 12.544c10.496 4.8 20.32 3.328 29.216-4.192a462.72 462.72 0 0 0 33.984-32.896c0.96-1.024 2.016-2.048 3.04-3.04 4.8 6.464 9.6 14.016 15.136 23.84 14.4 25.664 27.456 55.008 40.96 92.096a191.904 191.904 0 0 0-24.32 24.8l-0.128 0.256a27.296 27.296 0 0 0-5.856-8.16 48.448 48.448 0 0 0-15.84-9.376 78.592 78.592 0 0 0-32.352-4.672 91.104 91.104 0 0 0-18.336 2.784 48.48 48.48 0 0 0-22.72 12.48 23.36 23.36 0 0 0-3.68 29.056c3.68 5.76 9.248 10.24 16.96 13.632 9.44 4.128 19.488 6.304 29.984 6.304 0.736 0 1.504 0 2.24-0.064 4.544-0.064 8.416-0.16 12.352-0.768 12.352-2.016 21.248-5.44 28.864-11.136a28 28 0 0 0 7.52-8.448c0.8 0.96 1.12 2.272 2.144 3.04a13.728 13.728 0 0 0 7.808 2.656 14.432 14.432 0 0 0 8.64-3.136l4.256-3.2c25.44-19.68 48.8-31.168 73.504-36.224 5.632-1.184 11.2-2.464 16.8-3.744 6.56-1.568 13.12-3.072 19.776-4.352 8.416-1.696 13.664-7.552 13.408-15.04-0.192-5.888-4.096-12.704-14.432-14.016a140.096 140.096 0 0 0-16-0.8c-17.088 0-32.512 1.376-47.68 5.184-12.8-34.88-25.472-63.296-39.744-89.152a248 248 0 0 0-25.792-39.392 68.256 68.256 0 0 0-11.2-11.072 33.6 33.6 0 0 0-6.656-4c11.616-3.584 23.232-7.232 34.848-10.912a42.304 42.304 0 0 0 27.904-53.504c-3.936-12.32-12.352-21.344-25.056-26.784-64.8-27.52-129.6-55.04-194.304-82.752-10.56-4.544-23.168-9.344-37.12-11.392a14.528 14.528 0 0 0-5.568-0.448L493.28 0 492.832 0.32c-0.416 0-0.96 0-1.504 0.064l-6.848 0.256-0.832 0.768c-9.184 1.28-18.496 4.032-28.544 8.288L278.592 84.8c-8.8 3.68-17.6 7.36-26.24 11.392-16.32 7.552-25.12 21.536-24.768 39.36 0.288 17.536 9.024 30.72 25.248 38.144 4.096 1.92 8.32 3.424 12.544 4.96l2.016 0.704a23.808 23.808 0 0 0 29.376-10.624v3.104a28.736 28.736 0 0 0-12.8 24.256v20.16l-11.52 8.832a16.448 16.448 0 0 0-4.896 6.304A739.968 739.968 0 0 0 236.832 292.16c-5.696 12.64-11.04 25.44-16.448 39.04a155.712 155.712 0 0 0-34.944-6.016 181.824 181.824 0 0 0-34.304 0.544c-7.68 0.832-13.056 6.336-13.376 13.664-0.32 6.912 4.064 12.672 11.168 14.72z" fill="#ffffff" /><path d="M503.168 395.104a16.352 16.352 0 0 0-14.336 4.992 15.616 15.616 0 0 0-3.488 15.712 15.392 15.392 0 0 0 12.8 11.04c8.768 1.344 18.048 1.76 29.024 1.632 4.864 23.52 22.496 38.144 45.664 38.144 1.184 0 2.4 0 3.616-0.128 10.752-0.64 20.096-5.568 26.304-13.76 6.144-8.096 8.416-18.72 6.208-29.12a54.016 54.016 0 0 0-14.112-25.824 16.064 16.064 0 0 0-26.4-18.208c-3.2 4.064-7.424 7.296-13.28 10.112a60.32 60.32 0 0 1-11.968 4.288l-1.184-1.696 0.032 1.984a83.072 83.072 0 0 1-14.112 1.92 122.432 122.432 0 0 1-24.768-1.088zM365.728 342.528c0 8.128 3.2 15.808 9.056 21.664a30.4 30.4 0 0 0 21.696 9.088 30.784 30.784 0 0 0 0-61.472c-16.96 0-30.72 13.76-30.72 30.72M599.392 339.136l-1.12-7.104c0-0.352 0.48-0.832 0.864-0.864l0.256 7.968z m36.064 3.808a30.752 30.752 0 0 0-30.208-31.136c-8.192 0.416-15.84 2.88-21.76 8.64a30.656 30.656 0 0 0-9.344 21.696 30.88 30.88 0 0 0 30.208 31.104h0.608a30.72 30.72 0 0 0 30.496-30.304z" fill="#ffffff" /><path d="M590.08 418.592a51.872 51.872 0 0 0-6.944-9.696h-0.032c-0.992-1.088-2.08-2.08-3.136-3.072a21.28 21.28 0 0 1-3.552-3.808 9.312 9.312 0 0 0-11.04-3.68l-7.712 3.072-1.312 3.584c-0.544 1.536-1.184 4.64 1.792 9.504 2.336 3.84 4.96 8.192 9.12 11.872a28.96 28.96 0 0 1-5.216-5.504l-20-28.576 0.32 25.952c0.128 5.44 1.568 11.616 3.808 16.16 5.536 11.424 16.576 16 26.528 16 2.24 0 4.48-0.256 6.56-0.64a17.76 17.76 0 0 0 14.144-18.208 27.584 27.584 0 0 0-3.328-12.96" fill="#ffffff" /></svg>