<?xml version="1.0" standalone="no"?><!DOCTYPE svg PUBLIC "-//W3C//DTD SVG 1.1//EN" "http://www.w3.org/Graphics/SVG/1.1/DTD/svg11.dtd"><svg class="icon" width="200px" height="200.00px" viewBox="0 0 1024 1024" version="1.1" xmlns="http://www.w3.org/2000/svg"><path d="M731.724541 27.393631m-27.393631 0a27.393631 27.393631 0 1 0 54.787262 0 27.393631 27.393631 0 1 0-54.787262 0Z" fill="#d81e06" /><path d="M927.930461 341.921619m-27.393631 0a27.393631 27.393631 0 1 0 54.787261 0 27.393631 27.393631 0 1 0-54.787261 0Z" fill="#d81e06" /><path d="M927.930461 112.797302m-27.393631 0a27.393631 27.393631 0 1 0 54.787261 0 27.393631 27.393631 0 1 0-54.787261 0Z" fill="#d81e06" /><path d="M805.311353 618.850506s-43.200599 159.527613-270.176396 201.04009-225.441139-109.344324-450.11495-76.732859c140.65133 205.260397 235.493143 224.366879 235.493144 224.366879h276.238291S921.638366 738.170101 805.311353 618.850506z" fill="#d81e06" /><path d="M878.974897 618.850506c0 243.780292-170.960809 405.149494-405.149494 405.149494S68.675909 862.630798 68.675909 618.850506A668.419933 668.419933 0 0 1 209.941102 211.015362C290.050206 108.039865 391.567778 41.819408 473.825403 41.819408s184.158861 66.220457 263.884301 169.195954a668.419933 668.419933 0 0 1 141.265193 407.835144z m-736.635444 0c0 202.11435 137.044886 331.48595 331.48595 331.48595S805.311353 821.041589 805.311353 618.850506a594.986587 594.986587 0 0 0-125.765156-362.639491C612.021281 169.426152 529.073061 115.099288 473.825403 115.099288s-138.119146 53.713001-205.720795 140.804796A594.909854 594.909854 0 0 0 142.339453 618.850506z m245.545148 220.990633" fill="#d81e06" /><path d="M305.089846 597.442038a49.10903 49.10903 0 1 1 49.10903-49.109029 49.10903 49.10903 0 0 1-49.10903 49.109029z m110.495317 171.881604a61.386287 61.386287 0 1 1 61.386287-61.386287 61.386287 61.386287 0 0 1-61.386287 61.386287z m0 0" fill="#d81e06" /></svg>