<?xml version="1.0" standalone="no"?><!DOCTYPE svg PUBLIC "-//W3C//DTD SVG 1.1//EN" "http://www.w3.org/Graphics/SVG/1.1/DTD/svg11.dtd"><svg class="icon" width="200px" height="143.92px" viewBox="0 0 1423 1024" version="1.1" xmlns="http://www.w3.org/2000/svg"><path d="M0 750.887586h1423.890099v273.112414H0zM1416.684872 423.392863a45.804657 45.804657 0 0 0-36.197688 18.870833 45.97621 45.97621 0 0 0-36.197688-18.870833 45.461551 45.461551 0 0 0-36.197688 18.870833 45.97621 45.97621 0 0 0-36.197688-18.870833 45.461551 45.461551 0 0 0-36.712348 18.870833 49.407271 49.407271 0 0 0-10.80784-9.950076 42.202044 42.202044 0 0 0-25.389848-8.920757 45.461551 45.461551 0 0 0-36.197688 18.870833 45.97621 45.97621 0 0 0-36.197688-18.870833 45.461551 45.461551 0 0 0-36.197688 18.870833 45.97621 45.97621 0 0 0-36.197688-18.870833 45.461551 45.461551 0 0 0-36.197688 18.870833 45.97621 45.97621 0 0 0-36.197688-18.870833 45.461551 45.461551 0 0 0-36.197688 18.870833 45.97621 45.97621 0 0 0-36.369241-18.870833 45.461551 45.461551 0 0 0-36.197688 18.870833 44.26068 44.26068 0 0 0-72.566929 0 45.461551 45.461551 0 0 0-36.197688-18.870833 45.97621 45.97621 0 0 0-36.197688 18.870833 45.461551 45.461551 0 0 0-36.197688-18.870833 45.97621 45.97621 0 0 0-36.197688 18.870833 45.461551 45.461551 0 0 0-36.197688-18.870833 45.97621 45.97621 0 0 0-36.197689 18.870833 45.461551 45.461551 0 0 0-36.197688-18.870833 45.97621 45.97621 0 0 0-36.197688 18.870833 45.461551 45.461551 0 0 0-36.197688-18.870833 45.97621 45.97621 0 0 0-36.197688 18.870833 45.461551 45.461551 0 0 0-36.197688-18.870833 45.97621 45.97621 0 0 0-36.197688 18.870833 45.461551 45.461551 0 0 0-36.197688-18.870833 45.97621 45.97621 0 0 0-36.197688 18.870833 45.461551 45.461551 0 0 0-36.197688-18.870833 45.97621 45.97621 0 0 0-36.197688 18.870833 48.549506 48.549506 0 0 0-22.988105-17.155303 42.888256 42.888256 0 0 0-13.209583-2.401742 45.97621 45.97621 0 0 0-36.197688 18.870833 45.804657 45.804657 0 0 0-36.197688-18.870833 45.97621 45.97621 0 0 0-36.197688 18.870833 45.97621 45.97621 0 0 0-36.197688-18.870833A47.520188 47.520188 0 0 0 0 449.640476V531.814374h1423.890099v-108.078405a34.310605 34.310605 0 0 0-7.205227-0.343106z" fill="#FF80B1" /><path d="M0 532.500586v218.387h1423.890099V532.500586H0z" fill="#FFEBCF" /><path d="M761.009214 147.878707V0h-42.373597v23.84587h21.272575v123.175072h1.029318a27.79159 27.79159 0 0 1 9.263864-1.715531 32.766628 32.766628 0 0 1 10.80784 2.573296z" fill="#FF99BB" /><path d="M199.001508 425.794605a48.549506 48.549506 0 0 1 22.988105 17.155303 45.97621 45.97621 0 0 1 36.197688-18.870833 45.461551 45.461551 0 0 1 36.197688 18.870833 45.97621 45.97621 0 0 1 36.197688-18.870833 45.461551 45.461551 0 0 1 36.197688 18.870833 45.97621 45.97621 0 0 1 36.197688-18.870833 45.461551 45.461551 0 0 1 36.197688 18.870833 45.97621 45.97621 0 0 1 36.197688-18.870833 45.461551 45.461551 0 0 1 36.197688 18.870833 45.97621 45.97621 0 0 1 36.197688-18.870833A45.461551 45.461551 0 0 1 583.280281 442.263696a45.97621 45.97621 0 0 1 36.197689-18.870833 45.461551 45.461551 0 0 1 36.197688 18.870833 45.97621 45.97621 0 0 1 36.197688-18.870833 45.461551 45.461551 0 0 1 36.197688 18.870833 44.26068 44.26068 0 0 1 72.566929 0 45.461551 45.461551 0 0 1 36.197688-18.870833 45.97621 45.97621 0 0 1 36.197688 18.870833 45.461551 45.461551 0 0 1 36.197688-18.870833 45.97621 45.97621 0 0 1 36.197688 18.870833 45.461551 45.461551 0 0 1 36.197688-18.870833 45.97621 45.97621 0 0 1 36.197688 18.870833 45.461551 45.461551 0 0 1 36.197688-18.870833 45.97621 45.97621 0 0 1 36.197688 18.870833 45.461551 45.461551 0 0 1 36.197688-18.870833 45.97621 45.97621 0 0 1 36.197688 18.870833 45.461551 45.461551 0 0 1 36.197688-18.870833 42.202044 42.202044 0 0 1 25.389848 8.920757V224.391355H199.001508z" fill="#F9B264" /><path d="M1219.742 145.648517a33.109734 33.109734 0 0 0-26.076059 13.724242 31.565756 31.565756 0 0 0-51.465907 0 31.565756 31.565756 0 0 0-51.465908 0 34.310605 34.310605 0 0 0-27.105377-13.724242 33.109734 33.109734 0 0 0-26.07606 13.724242 31.737309 31.737309 0 0 0-52.323672 0 33.109734 33.109734 0 0 0-26.07606-13.724242 34.310605 34.310605 0 0 0-26.07606 13.724242 33.109734 33.109734 0 0 0-26.076059-13.724242 34.310605 34.310605 0 0 0-26.07606 13.724242 31.565756 31.565756 0 0 0-51.465907 0 31.565756 31.565756 0 0 0-51.465907 0 36.8839 36.8839 0 0 0-15.268219-11.494052 32.766628 32.766628 0 0 0-10.807841-2.23019 27.79159 27.79159 0 0 0-9.263863 1.715531 37.398559 37.398559 0 0 0-13.552689 8.406098c-1.029318 1.200871-2.230189 2.230189-3.259508 3.602613a34.310605 34.310605 0 0 0-17.155302-12.351817 25.904507 25.904507 0 0 0-8.234545-1.372425 33.109734 33.109734 0 0 0-26.07606 13.724242 31.565756 31.565756 0 0 0-51.465907 0 31.565756 31.565756 0 0 0-51.465907 0 34.310605 34.310605 0 0 0-26.07606-13.724242 33.109734 33.109734 0 0 0-26.076059 13.724242 31.737309 31.737309 0 0 0-52.323673 0 33.109734 33.109734 0 0 0-26.076059-13.724242 34.310605 34.310605 0 0 0-26.07606 13.724242 31.565756 31.565756 0 0 0-51.465907 0 31.565756 31.565756 0 0 0-51.465907 0 31.565756 31.565756 0 0 0-51.465908 0 33.109734 33.109734 0 0 0-26.076059-13.724242A34.310605 34.310605 0 0 0 199.001508 164.690903v59.700452h1025.887083V146.334729a26.419166 26.419166 0 0 0-5.146591-0.686212z" fill="#FFEBCF" /></svg>